<svg xmlns="http://www.w3.org/2000/svg" viewBox="0 0 25 23" width="25" height="23"><title>Asset 3-svg</title><defs><linearGradient id="g1" x2="1" gradientUnits="userSpaceOnUse" gradientTransform="matrix(19.35,0,0,11.32,5.39,5.66)"><stop offset="0" stop-color="#e5c080"></stop><stop offset="1" stop-color="#c48411"></stop></linearGradient></defs><style>		.s0 { fill: #224694 } 		.s1 { fill: url(#g1) } 	</style><g id="Layer_2"><g id="Layer_1-2"><path id="Layer" class="s0" d="m3.2 18.9h2.2v-3.3h0.1l3 1.8v4.7h-8.5v-10.3l3.2 1.9"></path><path id="Layer" class="s0" d="m19.4 12.4l-4.7 2.9-2.3 1.4-2.3-1.4-10.1-6.1v-3.7l12.4 7.5 6.9-4.2 0.1-0.1v3.7z"></path><path id="Layer" class="s0" d="m24.7 5.5v16.6h-8.5v-4.7l3.1-1.8h0.1v3.3h2.2v-7.8-3.7l3.1-1.9z"></path><path id="Layer" class="s1" d="m24.7 0v3.7l-10 6.2-2.3 1.4-2.3-1.4-4.7-2.9v-3.7l7 4.3 12.1-7.5 0.2-0.1z"></path></g></g></svg>