<svg xmlns="http://www.w3.org/2000/svg" height="35.044" viewBox="0 0 30.783 35.044" width="30.783"><path d="m1.874 18.985a1.876 1.876 0 0 1 0-3.752h3.755a1.876 1.876 0 0 1 0 3.752zm3.754-8.6-2.655-2.656a1.876 1.876 0 0 1 2.653-2.653l2.655 2.656a1.876 1.876 0 0 1 -2.653 2.653zm16.1 0a1.875 1.875 0 0 1 0-2.652l2.655-2.655a1.876 1.876 0 0 1 2.653 2.653l-2.655 2.655a1.876 1.876 0 0 1 -2.652 0zm-8.828-4.756v-3.755a1.876 1.876 0 0 1 3.752 0v3.755a1.876 1.876 0 0 1 -3.752 0z" fill="#41b79d"></path><path d="m11.746 13.271 6.112-2.9c.62-.295.627-.794.024-1.121l-16.869-9.116c-.603-.326-1.056-.034-1.013.647l1.272 18.831c.046.69.513.89 1.042.461l5.264-4.264 4.459 7.135a1.244 1.244 0 0 0 1.712.392l2.028-1.267a1.244 1.244 0 0 0 .4-1.711z" fill="#6dd8c0" transform="translate(12.454 11.519)"></path></svg>